<svg xmlns="http://www.w3.org/2000/svg" width="1000" height="390" viewBox="0 0 1000 390" data-palette="e67156-e7c36a-f6acba-f138d8ca83c9" role="img" aria-labelledby="hero-dark-title hero-dark-desc"><title id="hero-dark-title">ofdcli</title><desc id="hero-dark-desc">Read OFD documents from a command line.</desc><defs><linearGradient id="brand" gradientUnits="userSpaceOnUse" x2="1000" y2="390"><stop stop-color="#e67156"/><stop offset=".6" stop-color="#e7c36a"/><stop offset="1" stop-color="#f6acba"/></linearGradient><radialGradient id="halo"><stop stop-color="#e67156" stop-opacity=".22"/><stop offset="1" stop-color="#0a080d" stop-opacity="0"/></radialGradient><filter id="glow"><feGaussianBlur stdDeviation="5"/></filter><pattern id="grid" width="40" height="40" patternUnits="userSpaceOnUse"><path d="M40 0H0V40" fill="none" stroke="#3a1f1d" stroke-opacity=".35" stroke-width=".6"/></pattern><marker id="arrow" viewBox="0 0 10 10" refX="8" refY="5" markerWidth="5" markerHeight="5" orient="auto"><path d="m1 1 7 4-7 4" fill="none" stroke="#e67156" stroke-width="1.5"/></marker></defs><style>text{font-family:Arial,"Noto Sans",sans-serif}.flow{stroke-dasharray:10 110;animation:flow 6s linear infinite}.pulse{animation:pulse 5s ease-in-out infinite}.turn{transform-box:fill-box;transform-origin:center;animation:turn 36s linear infinite}@keyframes flow{to{stroke-dashoffset:-360}}@keyframes pulse{0%,100%{opacity:.45}50%{opacity:1}}@keyframes turn{to{transform:rotate(360deg)}}@media(prefers-reduced-motion:reduce){*{animation:none!important;transform:none!important}.flow{display:none}}</style><rect width="1000" height="390" rx="16" fill="#0a080d"/><rect width="1000" height="390" rx="16" fill="url(#grid)"/><ellipse cx="630.0" cy="167.7" rx="500.0" ry="273.0" fill="url(#halo)"/><circle cx="813.38" cy="101.68" r="1.68" fill="#e7c36a" opacity="0.55"/><circle cx="1077.19" cy="253.94" r="1.49" fill="#e67156" opacity="0.20"/><circle cx="627.41" cy="340.34" r="1.65" fill="#e67156" opacity="0.56"/><circle cx="990.23" cy="253.91" r="0.91" fill="#e7c36a" opacity="0.76"/><circle cx="1027.85" cy="128.56" r="0.89" fill="#e67156" opacity="0.70"/><circle cx="664.63" cy="70.77" r="0.89" fill="#e67156" opacity="0.56"/><circle cx="590.80" cy="224.97" r="0.67" fill="#e7c36a" opacity="0.77"/><circle cx="856.70" cy="140.51" r="0.86" fill="#e67156" opacity="0.50"/><circle cx="923.94" cy="273.43" r="1.51" fill="#e67156" opacity="0.74"/><circle cx="648.49" cy="74.95" r="1.61" fill="#e7c36a" opacity="0.41"/><circle cx="663.75" cy="128.32" r="1.41" fill="#e67156" opacity="0.43"/><circle cx="1065.98" cy="299.00" r="0.89" fill="#e67156" opacity="0.43"/><circle cx="665.41" cy="371.75" r="1.23" fill="#e7c36a" opacity="0.71"/><circle cx="566.27" cy="216.86" r="1.37" fill="#e67156" opacity="0.21"/><circle cx="735.81" cy="248.21" r="0.63" fill="#e67156" opacity="0.71"/><circle cx="1022.30" cy="358.23" r="1.51" fill="#e7c36a" opacity="0.76"/><circle cx="1045.54" cy="313.51" r="0.87" fill="#e67156" opacity="0.57"/><circle cx="1054.42" cy="281.45" r="1.37" fill="#e67156" opacity="0.78"/><circle cx="913.07" cy="358.96" r="1.68" fill="#e7c36a" opacity="0.51"/><circle cx="796.38" cy="297.78" r="1.01" fill="#e67156" opacity="0.50"/><circle cx="1075.35" cy="203.63" r="1.31" fill="#e67156" opacity="0.29"/><circle cx="861.00" cy="252.71" r="0.72" fill="#e7c36a" opacity="0.61"/><circle cx="824.02" cy="68.50" r="1.11" fill="#e67156" opacity="0.43"/><circle cx="826.39" cy="200.17" r="1.14" fill="#e67156" opacity="0.24"/><circle cx="1069.85" cy="154.95" r="1.18" fill="#e7c36a" opacity="0.56"/><circle cx="1005.26" cy="108.09" r="1.16" fill="#e67156" opacity="0.52"/><circle cx="1042.25" cy="143.82" r="1.26" fill="#e67156" opacity="0.49"/><circle cx="922.46" cy="198.76" r="1.40" fill="#e7c36a" opacity="0.22"/><circle cx="626.42" cy="339.00" r="1.61" fill="#e67156" opacity="0.57"/><circle cx="775.04" cy="145.60" r="1.00" fill="#e67156" opacity="0.53"/><circle cx="624.16" cy="354.56" r="1.58" fill="#e7c36a" opacity="0.61"/><circle cx="619.53" cy="302.77" r="1.39" fill="#e67156" opacity="0.52"/><circle cx="983.99" cy="71.33" r="1.65" fill="#e67156" opacity="0.63"/><circle cx="927.71" cy="414.98" r="0.77" fill="#e7c36a" opacity="0.33"/><circle cx="919.10" cy="304.84" r="1.66" fill="#e67156" opacity="0.52"/><circle cx="604.49" cy="321.95" r="1.46" fill="#e67156" opacity="0.62"/><circle cx="1023.84" cy="283.28" r="1.62" fill="#e7c36a" opacity="0.76"/><circle cx="1001.81" cy="367.50" r="1.43" fill="#e67156" opacity="0.52"/><circle cx="838.33" cy="246.32" r="0.80" fill="#e67156" opacity="0.55"/><circle cx="806.13" cy="377.48" r="1.56" fill="#e7c36a" opacity="0.26"/><circle cx="876.31" cy="99.82" r="1.58" fill="#e67156" opacity="0.49"/><circle cx="818.05" cy="73.33" r="0.63" fill="#e67156" opacity="0.52"/><circle cx="897.99" cy="379.01" r="0.71" fill="#e7c36a" opacity="0.61"/><circle cx="827.14" cy="397.37" r="0.76" fill="#e67156" opacity="0.56"/><circle cx="754.18" cy="412.59" r="1.34" fill="#e67156" opacity="0.38"/><circle cx="857.36" cy="72.88" r="0.93" fill="#e7c36a" opacity="0.62"/><circle cx="768.99" cy="188.09" r="1.42" fill="#e67156" opacity="0.48"/><circle cx="1000.22" cy="191.01" r="1.63" fill="#e67156" opacity="0.53"/><circle cx="1074.18" cy="237.56" r="1.09" fill="#e7c36a" opacity="0.77"/><circle cx="961.27" cy="150.26" r="0.77" fill="#e67156" opacity="0.29"/><circle cx="754.59" cy="37.36" r="0.82" fill="#e67156" opacity="0.24"/><circle cx="977.53" cy="216.93" r="1.51" fill="#e7c36a" opacity="0.29"/><circle cx="805.66" cy="162.12" r="1.58" fill="#e67156" opacity="0.34"/><circle cx="800.02" cy="315.27" r="1.38" fill="#e67156" opacity="0.59"/><circle cx="581.12" cy="273.44" r="0.71" fill="#e7c36a" opacity="0.70"/><circle cx="1073.31" cy="175.34" r="0.78" fill="#e67156" opacity="0.31"/><circle cx="967.31" cy="188.61" r="0.71" fill="#e67156" opacity="0.33"/><circle cx="1061.78" cy="185.60" r="0.68" fill="#e7c36a" opacity="0.64"/><circle cx="1028.44" cy="206.44" r="1.13" fill="#e67156" opacity="0.41"/><circle cx="592.77" cy="217.99" r="1.23" fill="#e67156" opacity="0.37"/><circle cx="626.42" cy="336.59" r="1.51" fill="#e7c36a" opacity="0.67"/><circle cx="870.17" cy="388.76" r="1.27" fill="#e67156" opacity="0.55"/><circle cx="826.28" cy="418.93" r="0.90" fill="#e67156" opacity="0.68"/><circle cx="679.81" cy="92.23" r="0.67" fill="#e7c36a" opacity="0.55"/><circle cx="613.35" cy="294.04" r="1.13" fill="#e67156" opacity="0.54"/><circle cx="1006.65" cy="295.05" r="1.61" fill="#e67156" opacity="0.36"/><circle cx="1082.10" cy="198.08" r="0.92" fill="#e7c36a" opacity="0.21"/><circle cx="730.17" cy="351.43" r="0.66" fill="#e67156" opacity="0.75"/><circle cx="617.01" cy="274.09" r="1.41" fill="#e67156" opacity="0.21"/><circle cx="642.79" cy="358.72" r="1.64" fill="#e7c36a" opacity="0.40"/><circle cx="1046.24" cy="170.58" r="0.80" fill="#e67156" opacity="0.58"/><circle cx="891.49" cy="22.63" r="0.85" fill="#e67156" opacity="0.27"/><circle cx="1072.08" cy="210.71" r="1.33" fill="#e7c36a" opacity="0.44"/><circle cx="725.39" cy="260.40" r="1.61" fill="#e67156" opacity="0.33"/><circle cx="866.92" cy="380.29" r="1.30" fill="#e67156" opacity="0.65"/><circle cx="881.34" cy="310.43" r="0.95" fill="#e7c36a" opacity="0.57"/><circle cx="659.29" cy="65.94" r="1.20" fill="#e67156" opacity="0.68"/><circle cx="598.11" cy="136.34" r="1.33" fill="#e67156" opacity="0.45"/><circle cx="923.95" cy="193.82" r="1.52" fill="#e7c36a" opacity="0.22"/><circle cx="1083.41" cy="247.05" r="1.09" fill="#e67156" opacity="0.79"/><circle cx="1011.69" cy="219.39" r="0.62" fill="#e67156" opacity="0.44"/><circle cx="848.24" cy="20.70" r="0.98" fill="#e7c36a" opacity="0.79"/><circle cx="650.46" cy="322.49" r="1.36" fill="#e67156" opacity="0.45"/><circle cx="1076.01" cy="187.36" r="1.19" fill="#e67156" opacity="0.55"/><circle cx="729.81" cy="411.42" r="0.91" fill="#e7c36a" opacity="0.45"/><circle cx="799.00" cy="190.39" r="1.23" fill="#e67156" opacity="0.25"/><circle cx="1044.25" cy="223.86" r="1.44" fill="#e67156" opacity="0.74"/><circle cx="681.03" cy="236.70" r="1.16" fill="#e7c36a" opacity="0.75"/><circle cx="1032.90" cy="206.56" r="1.38" fill="#e67156" opacity="0.33"/><circle cx="1050.24" cy="324.63" r="0.95" fill="#e67156" opacity="0.49"/><circle cx="621.34" cy="345.60" r="0.68" fill="#e7c36a" opacity="0.43"/><circle cx="962.38" cy="269.89" r="0.92" fill="#e67156" opacity="0.75"/><circle cx="742.12" cy="389.80" r="1.30" fill="#e67156" opacity="0.69"/><circle cx="895.98" cy="304.24" r="1.65" fill="#e7c36a" opacity="0.56"/><circle cx="703.60" cy="151.83" r="1.54" fill="#e67156" opacity="0.62"/><circle cx="682.63" cy="71.50" r="1.03" fill="#e67156" opacity="0.44"/><circle cx="792.21" cy="96.85" r="1.46" fill="#e7c36a" opacity="0.21"/><circle cx="890.20" cy="43.78" r="0.69" fill="#e67156" opacity="0.37"/><circle cx="745.39" cy="27.33" r="1.38" fill="#e67156" opacity="0.38"/><circle cx="909.73" cy="295.95" r="0.92" fill="#e7c36a" opacity="0.59"/><circle cx="1014.06" cy="84.37" r="1.18" fill="#e67156" opacity="0.59"/><circle cx="727.73" cy="40.02" r="0.64" fill="#e67156" opacity="0.52"/><circle cx="880.58" cy="59.08" r="0.80" fill="#e7c36a" opacity="0.63"/><circle cx="623.62" cy="329.32" r="1.06" fill="#e67156" opacity="0.78"/><circle cx="885.03" cy="263.07" r="1.14" fill="#e67156" opacity="0.43"/><circle cx="1069.56" cy="294.18" r="1.30" fill="#e7c36a" opacity="0.34"/><circle cx="892.24" cy="427.18" r="0.82" fill="#e67156" opacity="0.34"/><circle cx="755.59" cy="228.04" r="1.30" fill="#e67156" opacity="0.39"/><circle cx="821.03" cy="15.17" r="0.90" fill="#e7c36a" opacity="0.76"/><circle cx="573.55" cy="179.74" r="0.70" fill="#e67156" opacity="0.39"/><circle cx="642.34" cy="95.95" r="1.53" fill="#e67156" opacity="0.69"/><circle cx="662.00" cy="172.01" r="0.76" fill="#e7c36a" opacity="0.21"/><circle cx="662.50" cy="166.10" r="1.34" fill="#e67156" opacity="0.80"/><circle cx="631.67" cy="196.53" r="0.75" fill="#e67156" opacity="0.51"/><circle cx="866.07" cy="249.15" r="1.58" fill="#e7c36a" opacity="0.50"/><circle cx="1044.90" cy="194.96" r="0.64" fill="#e67156" opacity="0.44"/><circle cx="641.01" cy="288.96" r="1.22" fill="#e67156" opacity="0.22"/><circle cx="1062.06" cy="310.82" r="0.93" fill="#e7c36a" opacity="0.49"/><circle cx="762.76" cy="360.52" r="1.04" fill="#e67156" opacity="0.28"/><circle cx="1022.43" cy="358.99" r="1.48" fill="#e67156" opacity="0.44"/><circle cx="737.65" cy="407.46" r="0.89" fill="#e7c36a" opacity="0.29"/><circle cx="982.81" cy="235.42" r="0.94" fill="#e67156" opacity="0.51"/><circle cx="932.66" cy="393.81" r="1.57" fill="#e67156" opacity="0.75"/><circle cx="747.83" cy="312.25" r="1.63" fill="#e7c36a" opacity="0.80"/><circle cx="922.04" cy="417.88" r="0.89" fill="#e67156" opacity="0.72"/><circle cx="1029.51" cy="95.60" r="0.71" fill="#e67156" opacity="0.69"/><circle cx="847.86" cy="397.69" r="1.09" fill="#e7c36a" opacity="0.62"/><circle cx="595.58" cy="307.39" r="1.40" fill="#e67156" opacity="0.68"/><circle cx="864.92" cy="353.77" r="1.48" fill="#e67156" opacity="0.48"/><circle cx="722.66" cy="51.99" r="0.73" fill="#e7c36a" opacity="0.24"/><circle cx="896.14" cy="288.58" r="1.06" fill="#e67156" opacity="0.36"/><circle cx="759.70" cy="114.88" r="1.41" fill="#e67156" opacity="0.67"/><circle cx="808.49" cy="42.81" r="1.65" fill="#e7c36a" opacity="0.38"/><circle cx="881.65" cy="217.30" r="0.92" fill="#e67156" opacity="0.38"/><circle cx="906.32" cy="371.02" r="1.58" fill="#e67156" opacity="0.67"/><circle cx="632.19" cy="266.51" r="0.82" fill="#e7c36a" opacity="0.61"/><circle cx="881.30" cy="151.61" r="0.96" fill="#e67156" opacity="0.68"/><circle cx="1014.29" cy="311.30" r="1.28" fill="#e67156" opacity="0.62"/><circle cx="873.71" cy="321.32" r="0.65" fill="#e7c36a" opacity="0.57"/><circle cx="959.99" cy="147.41" r="1.44" fill="#e67156" opacity="0.35"/><circle cx="941.54" cy="195.36" r="0.95" fill="#e67156" opacity="0.50"/><circle cx="1019.41" cy="128.34" r="1.26" fill="#e7c36a" opacity="0.23"/><circle cx="648.57" cy="173.38" r="1.02" fill="#e67156" opacity="0.42"/><circle cx="721.78" cy="341.33" r="0.69" fill="#e67156" opacity="0.78"/><circle cx="669.89" cy="93.37" r="1.59" fill="#e7c36a" opacity="0.55"/><circle cx="966.29" cy="140.69" r="0.68" fill="#e67156" opacity="0.57"/><circle cx="849.54" cy="334.19" r="1.50" fill="#e67156" opacity="0.71"/><circle cx="658.34" cy="68.58" r="1.14" fill="#e7c36a" opacity="0.57"/><circle cx="793.40" cy="307.39" r="0.63" fill="#e67156" opacity="0.56"/><circle cx="719.07" cy="71.03" r="0.66" fill="#e67156" opacity="0.63"/><circle cx="899.84" cy="425.94" r="0.71" fill="#e7c36a" opacity="0.50"/><circle cx="603.18" cy="116.71" r="0.99" fill="#e67156" opacity="0.23"/><circle cx="1017.80" cy="218.75" r="1.43" fill="#e67156" opacity="0.64"/><circle cx="1016.95" cy="322.63" r="1.10" fill="#e7c36a" opacity="0.45"/><circle cx="1003.74" cy="90.73" r="1.24" fill="#e67156" opacity="0.74"/><circle cx="664.51" cy="82.79" r="1.42" fill="#e67156" opacity="0.43"/><circle cx="837.02" cy="432.54" r="0.73" fill="#e7c36a" opacity="0.58"/><circle cx="642.58" cy="179.19" r="0.65" fill="#e67156" opacity="0.34"/><circle cx="624.09" cy="148.57" r="1.09" fill="#e67156" opacity="0.72"/><circle cx="691.14" cy="230.55" r="1.68" fill="#e7c36a" opacity="0.66"/><circle cx="747.74" cy="399.41" r="1.58" fill="#e67156" opacity="0.52"/><circle cx="573.70" cy="278.57" r="1.55" fill="#e67156" opacity="0.52"/><circle cx="901.92" cy="72.36" r="0.91" fill="#e7c36a" opacity="0.56"/><circle cx="630.75" cy="336.55" r="0.71" fill="#e67156" opacity="0.69"/><circle cx="858.40" cy="298.53" r="0.74" fill="#e67156" opacity="0.66"/><circle cx="669.41" cy="170.10" r="1.70" fill="#e7c36a" opacity="0.29"/><circle cx="631.84" cy="84.43" r="1.29" fill="#e67156" opacity="0.66"/><circle cx="748.46" cy="164.30" r="1.45" fill="#e67156" opacity="0.60"/><circle cx="669.35" cy="355.80" r="0.80" fill="#e7c36a" opacity="0.67"/><circle cx="912.81" cy="55.70" r="1.18" fill="#e67156" opacity="0.68"/><circle cx="712.28" cy="57.40" r="1.21" fill="#e67156" opacity="0.31"/><circle cx="777.81" cy="30.97" r="1.10" fill="#e7c36a" opacity="0.42"/><circle cx="845.57" cy="410.10" r="1.06" fill="#e67156" opacity="0.47"/><circle cx="957.41" cy="324.26" r="0.98" fill="#e67156" opacity="0.68"/><circle cx="777.98" cy="242.50" r="1.02" fill="#e7c36a" opacity="0.26"/><circle cx="852.61" cy="410.75" r="0.75" fill="#e67156" opacity="0.49"/><circle cx="1081.67" cy="258.40" r="1.50" fill="#e67156" opacity="0.43"/><circle cx="883.49" cy="28.79" r="0.84" fill="#e7c36a" opacity="0.67"/><circle cx="842.34" cy="395.86" r="0.98" fill="#e67156" opacity="0.66"/><circle cx="796.53" cy="31.46" r="0.94" fill="#e67156" opacity="0.61"/><circle cx="892.04" cy="268.25" r="1.12" fill="#e7c36a" opacity="0.66"/><circle cx="691.76" cy="50.27" r="0.97" fill="#e67156" opacity="0.37"/><circle cx="771.20" cy="373.36" r="1.40" fill="#e67156" opacity="0.39"/><circle cx="790.69" cy="55.15" r="0.95" fill="#e7c36a" opacity="0.34"/><circle cx="710.13" cy="55.77" r="1.06" fill="#e67156" opacity="0.73"/><circle cx="604.11" cy="225.38" r="1.37" fill="#e67156" opacity="0.50"/><circle cx="625.43" cy="330.83" r="0.67" fill="#e7c36a" opacity="0.59"/><circle cx="678.26" cy="397.14" r="1.24" fill="#e67156" opacity="0.34"/><circle cx="983.86" cy="147.52" r="0.62" fill="#e67156" opacity="0.36"/><circle cx="1059.81" cy="149.84" r="1.46" fill="#e7c36a" opacity="0.67"/><circle cx="628.58" cy="361.52" r="1.15" fill="#e67156" opacity="0.74"/><circle cx="794.29" cy="433.47" r="1.35" fill="#e67156" opacity="0.44"/><circle cx="822.20" cy="377.27" r="1.17" fill="#e7c36a" opacity="0.26"/><circle cx="909.14" cy="281.05" r="0.63" fill="#e67156" opacity="0.32"/><circle cx="933.18" cy="55.34" r="1.60" fill="#e67156" opacity="0.49"/><circle cx="863.38" cy="23.15" r="0.83" fill="#e7c36a" opacity="0.50"/><circle cx="917.85" cy="415.52" r="1.52" fill="#e67156" opacity="0.56"/><circle cx="696.66" cy="276.95" r="0.79" fill="#e67156" opacity="0.31"/><circle cx="709.80" cy="97.92" r="1.59" fill="#e7c36a" opacity="0.20"/><circle cx="668.14" cy="127.56" r="1.65" fill="#e67156" opacity="0.49"/><circle cx="871.95" cy="399.98" r="1.32" fill="#e67156" opacity="0.36"/><circle cx="915.45" cy="198.40" r="1.22" fill="#e7c36a" opacity="0.67"/><circle cx="601.83" cy="312.04" r="1.59" fill="#e67156" opacity="0.60"/><circle cx="617.79" cy="192.90" r="1.40" fill="#e67156" opacity="0.44"/><circle cx="646.75" cy="112.19" r="1.06" fill="#e7c36a" opacity="0.61"/><circle cx="908.32" cy="397.77" r="1.10" fill="#e67156" opacity="0.46"/><circle cx="718.07" cy="409.95" r="0.78" fill="#e67156" opacity="0.63"/><circle cx="997.98" cy="348.89" r="1.69" fill="#e7c36a" opacity="0.59"/><circle cx="747.31" cy="142.25" r="1.52" fill="#e67156" opacity="0.52"/><circle cx="595.33" cy="279.35" r="1.25" fill="#e67156" opacity="0.25"/><circle cx="686.74" cy="398.54" r="0.91" fill="#e7c36a" opacity="0.72"/><circle cx="801.59" cy="372.02" r="1.53" fill="#e67156" opacity="0.38"/><circle cx="642.68" cy="367.71" r="1.00" fill="#e67156" opacity="0.58"/><circle cx="655.56" cy="68.56" r="0.94" fill="#e7c36a" opacity="0.40"/><circle cx="1071.10" cy="290.37" r="0.65" fill="#e67156" opacity="0.47"/><circle cx="584.36" cy="304.21" r="1.57" fill="#e67156" opacity="0.25"/><circle cx="895.24" cy="204.27" r="0.91" fill="#e7c36a" opacity="0.70"/><circle cx="964.59" cy="287.11" r="1.29" fill="#e67156" opacity="0.22"/><circle cx="867.85" cy="19.99" r="1.42" fill="#e67156" opacity="0.51"/><circle cx="694.62" cy="50.28" r="1.04" fill="#e7c36a" opacity="0.28"/><circle cx="769.19" cy="142.46" r="1.70" fill="#e67156" opacity="0.28"/><circle cx="598.75" cy="148.75" r="1.38" fill="#e67156" opacity="0.46"/><circle cx="750.86" cy="128.27" r="1.59" fill="#e7c36a" opacity="0.39"/><circle cx="899.99" cy="362.84" r="1.67" fill="#e67156" opacity="0.24"/><circle cx="1013.72" cy="337.65" r="1.01" fill="#e67156" opacity="0.40"/><circle cx="984.48" cy="109.04" r="0.62" fill="#e7c36a" opacity="0.45"/><circle cx="677.64" cy="397.51" r="1.05" fill="#e67156" opacity="0.68"/><circle cx="817.70" cy="420.75" r="0.61" fill="#e67156" opacity="0.34"/><circle cx="648.16" cy="302.66" r="0.65" fill="#e7c36a" opacity="0.55"/><circle cx="783.21" cy="431.40" r="1.60" fill="#e67156" opacity="0.65"/><circle cx="1003.23" cy="248.38" r="0.93" fill="#e67156" opacity="0.79"/><circle cx="1031.42" cy="159.07" r="0.98" fill="#e7c36a" opacity="0.25"/><circle cx="799.67" cy="61.42" r="0.79" fill="#e67156" opacity="0.50"/><circle cx="1078.98" cy="248.95" r="1.32" fill="#e67156" opacity="0.72"/><circle cx="1061.60" cy="150.20" r="1.62" fill="#e7c36a" opacity="0.41"/><circle cx="878.99" cy="243.54" r="1.03" fill="#e67156" opacity="0.26"/><circle cx="745.87" cy="422.37" r="1.47" fill="#e67156" opacity="0.45"/><circle cx="666.03" cy="99.06" r="0.66" fill="#e7c36a" opacity="0.80"/><circle cx="865.72" cy="78.19" r="1.26" fill="#e67156" opacity="0.52"/><circle cx="977.87" cy="223.18" r="1.65" fill="#e67156" opacity="0.67"/><circle cx="600.29" cy="120.62" r="0.90" fill="#e7c36a" opacity="0.53"/><circle cx="819.75" cy="197.28" r="0.82" fill="#e67156" opacity="0.39"/><circle cx="637.03" cy="313.95" r="1.08" fill="#e67156" opacity="0.48"/><circle cx="782.20" cy="23.34" r="0.69" fill="#e7c36a" opacity="0.25"/><circle cx="758.34" cy="56.07" r="1.32" fill="#e67156" opacity="0.76"/><circle cx="719.54" cy="416.35" r="1.49" fill="#e67156" opacity="0.48"/><circle cx="964.81" cy="53.61" r="0.77" fill="#e7c36a" opacity="0.66"/><circle cx="919.54" cy="173.00" r="1.59" fill="#e67156" opacity="0.42"/><circle cx="740.24" cy="47.74" r="1.22" fill="#e67156" opacity="0.71"/><circle cx="860.34" cy="413.48" r="1.67" fill="#e7c36a" opacity="0.23"/><circle cx="570.41" cy="195.52" r="0.87" fill="#e67156" opacity="0.35"/><circle cx="699.12" cy="138.40" r="1.36" fill="#e67156" opacity="0.35"/><circle cx="958.01" cy="49.44" r="1.43" fill="#e7c36a" opacity="0.49"/><circle cx="573.21" cy="250.85" r="1.27" fill="#e67156" opacity="0.74"/><circle cx="970.04" cy="137.95" r="1.10" fill="#e67156" opacity="0.64"/><circle cx="644.52" cy="356.00" r="0.93" fill="#e7c36a" opacity="0.26"/><circle cx="1063.61" cy="160.75" r="1.56" fill="#e67156" opacity="0.34"/><circle cx="878.56" cy="159.80" r="1.24" fill="#e67156" opacity="0.50"/><circle cx="864.91" cy="427.49" r="0.60" fill="#e7c36a" opacity="0.64"/><circle cx="583.14" cy="231.84" r="1.00" fill="#e67156" opacity="0.74"/><circle cx="680.16" cy="58.17" r="0.65" fill="#e67156" opacity="0.32"/><circle cx="668.91" cy="382.40" r="1.14" fill="#e7c36a" opacity="0.26"/><circle cx="759.30" cy="25.19" r="0.63" fill="#e67156" opacity="0.33"/><circle cx="819.89" cy="187.30" r="1.23" fill="#e67156" opacity="0.27"/><circle cx="806.09" cy="353.25" r="0.89" fill="#e7c36a" opacity="0.45"/><circle cx="1008.31" cy="158.30" r="0.64" fill="#e67156" opacity="0.22"/><circle cx="768.13" cy="128.04" r="0.70" fill="#e67156" opacity="0.27"/><circle cx="1057.45" cy="243.58" r="1.11" fill="#e7c36a" opacity="0.54"/><circle cx="715.95" cy="387.04" r="0.64" fill="#e67156" opacity="0.31"/><circle cx="706.84" cy="79.95" r="1.19" fill="#e67156" opacity="0.67"/><circle cx="611.64" cy="312.39" r="1.21" fill="#e7c36a" opacity="0.42"/><circle cx="938.18" cy="122.69" r="1.65" fill="#e67156" opacity="0.39"/><circle cx="723.36" cy="146.90" r="0.94" fill="#e67156" opacity="0.46"/><circle cx="866.14" cy="372.00" r="1.29" fill="#e7c36a" opacity="0.53"/><circle cx="1031.15" cy="110.95" r="1.45" fill="#e67156" opacity="0.23"/><circle cx="988.93" cy="112.90" r="1.45" fill="#e67156" opacity="0.79"/><circle cx="787.92" cy="398.42" r="0.77" fill="#e7c36a" opacity="0.79"/><circle cx="1018.55" cy="139.79" r="1.22" fill="#e67156" opacity="0.50"/><circle cx="791.44" cy="433.24" r="1.42" fill="#e67156" opacity="0.42"/><circle cx="804.55" cy="216.73" r="0.79" fill="#e7c36a" opacity="0.28"/><circle cx="897.57" cy="333.54" r="0.97" fill="#e67156" opacity="0.64"/><circle cx="788.19" cy="419.73" r="1.17" fill="#e67156" opacity="0.39"/><circle cx="858.61" cy="191.10" r="1.47" fill="#e7c36a" opacity="0.65"/><circle cx="839.34" cy="128.04" r="1.53" fill="#e67156" opacity="0.75"/><circle cx="760.04" cy="299.08" r="1.61" fill="#e67156" opacity="0.49"/><circle cx="614.40" cy="145.01" r="1.43" fill="#e7c36a" opacity="0.51"/><circle cx="818.24" cy="304.02" r="0.98" fill="#e67156" opacity="0.61"/><circle cx="1021.21" cy="211.60" r="1.36" fill="#e67156" opacity="0.37"/><circle cx="981.79" cy="168.98" r="0.90" fill="#e7c36a" opacity="0.71"/><circle cx="725.22" cy="31.72" r="1.69" fill="#e67156" opacity="0.33"/><circle cx="1081.82" cy="212.65" r="1.15" fill="#e67156" opacity="0.33"/><circle cx="678.36" cy="158.49" r="1.11" fill="#e7c36a" opacity="0.68"/><circle cx="965.84" cy="259.56" r="1.31" fill="#e67156" opacity="0.64"/><circle cx="1054.85" cy="207.60" r="1.67" fill="#e67156" opacity="0.74"/><circle cx="612.19" cy="137.26" r="0.88" fill="#e7c36a" opacity="0.66"/><circle cx="1008.53" cy="306.60" r="0.62" fill="#e67156" opacity="0.59"/><circle cx="1033.75" cy="106.49" r="1.40" fill="#e67156" opacity="0.26"/><circle cx="962.95" cy="88.57" r="1.22" fill="#e7c36a" opacity="0.31"/><circle cx="568.59" cy="209.50" r="1.26" fill="#e67156" opacity="0.35"/><circle cx="1027.04" cy="160.04" r="1.60" fill="#e67156" opacity="0.51"/><circle cx="1002.58" cy="81.32" r="1.00" fill="#e7c36a" opacity="0.40"/><circle cx="836.39" cy="98.17" r="0.90" fill="#e67156" opacity="0.64"/><circle cx="1018.63" cy="148.12" r="0.78" fill="#e67156" opacity="0.72"/><circle cx="743.06" cy="41.85" r="1.55" fill="#e7c36a" opacity="0.71"/><circle cx="686.38" cy="65.16" r="1.40" fill="#e67156" opacity="0.50"/><circle cx="688.71" cy="371.81" r="1.69" fill="#e67156" opacity="0.37"/><circle cx="937.30" cy="391.50" r="1.31" fill="#e7c36a" opacity="0.44"/><circle cx="900.03" cy="34.42" r="0.77" fill="#e67156" opacity="0.53"/><circle cx="801.83" cy="35.40" r="0.61" fill="#e67156" opacity="0.44"/><circle cx="1046.20" cy="118.51" r="1.47" fill="#e7c36a" opacity="0.49"/><circle cx="1055.06" cy="215.90" r="1.24" fill="#e67156" opacity="0.65"/><circle cx="723.80" cy="405.42" r="0.74" fill="#e67156" opacity="0.31"/><circle cx="1044.84" cy="266.78" r="0.71" fill="#e7c36a" opacity="0.57"/><circle cx="772.34" cy="359.60" r="1.30" fill="#e67156" opacity="0.61"/><circle cx="1070.82" cy="159.75" r="1.23" fill="#e67156" opacity="0.31"/><circle cx="964.86" cy="74.60" r="0.80" fill="#e7c36a" opacity="0.70"/><circle cx="690.81" cy="359.41" r="0.64" fill="#e67156" opacity="0.75"/><circle cx="610.88" cy="220.71" r="1.31" fill="#e67156" opacity="0.22"/><circle cx="911.18" cy="28.92" r="1.12" fill="#e7c36a" opacity="0.63"/><circle cx="1075.91" cy="273.08" r="1.31" fill="#e67156" opacity="0.23"/><circle cx="997.87" cy="381.86" r="0.95" fill="#e67156" opacity="0.39"/><circle cx="665.98" cy="207.56" r="1.33" fill="#e7c36a" opacity="0.30"/><circle cx="592.31" cy="242.63" r="0.65" fill="#e67156" opacity="0.40"/><circle cx="575.48" cy="226.47" r="1.57" fill="#e67156" opacity="0.78"/><circle cx="921.08" cy="63.52" r="1.20" fill="#e7c36a" opacity="0.25"/><circle cx="865.97" cy="418.80" r="0.87" fill="#e67156" opacity="0.51"/><circle cx="923.83" cy="236.14" r="1.54" fill="#e67156" opacity="0.62"/><circle cx="734.21" cy="418.10" r="1.52" fill="#e7c36a" opacity="0.28"/><circle cx="628.24" cy="228.68" r="1.42" fill="#e67156" opacity="0.30"/><circle cx="806.96" cy="17.49" r="1.30" fill="#e67156" opacity="0.60"/><circle cx="1034.70" cy="100.88" r="1.20" fill="#e7c36a" opacity="0.39"/><circle cx="928.40" cy="317.29" r="1.26" fill="#e67156" opacity="0.55"/><circle cx="885.75" cy="31.77" r="1.19" fill="#e67156" opacity="0.65"/><circle cx="1078.10" cy="215.77" r="0.81" fill="#e7c36a" opacity="0.45"/><circle cx="617.92" cy="320.09" r="1.30" fill="#e67156" opacity="0.54"/><circle cx="775.46" cy="264.05" r="0.83" fill="#e67156" opacity="0.48"/><circle cx="1081.95" cy="243.15" r="1.12" fill="#e7c36a" opacity="0.40"/><circle cx="591.95" cy="132.05" r="0.78" fill="#e67156" opacity="0.43"/><circle cx="635.18" cy="81.54" r="1.31" fill="#e67156" opacity="0.36"/><circle cx="709.80" cy="61.42" r="1.66" fill="#e7c36a" opacity="0.37"/><circle cx="717.55" cy="331.67" r="0.92" fill="#e67156" opacity="0.64"/><circle cx="811.18" cy="38.77" r="1.67" fill="#e67156" opacity="0.79"/><circle cx="626.24" cy="323.41" r="1.62" fill="#e7c36a" opacity="0.31"/><circle cx="908.43" cy="41.06" r="1.00" fill="#e67156" opacity="0.27"/><circle cx="860.78" cy="373.97" r="1.01" fill="#e67156" opacity="0.58"/><circle cx="850.69" cy="39.93" r="0.94" fill="#e7c36a" opacity="0.47"/><circle cx="582.85" cy="217.21" r="1.45" fill="#e67156" opacity="0.70"/><circle cx="710.10" cy="146.26" r="0.63" fill="#e67156" opacity="0.76"/><circle cx="952.73" cy="377.30" r="1.50" fill="#e7c36a" opacity="0.55"/><circle cx="873.36" cy="310.20" r="1.16" fill="#e67156" opacity="0.62"/><circle cx="816.19" cy="378.40" r="1.49" fill="#e67156" opacity="0.62"/><circle cx="771.42" cy="22.10" r="0.78" fill="#e7c36a" opacity="0.31"/><circle cx="674.31" cy="336.68" r="1.10" fill="#e67156" opacity="0.53"/><circle cx="1013.80" cy="353.32" r="1.64" fill="#e67156" opacity="0.75"/><circle cx="904.43" cy="39.37" r="0.85" fill="#e7c36a" opacity="0.62"/><circle cx="1041.25" cy="312.50" r="1.13" fill="#e67156" opacity="0.32"/><circle cx="899.01" cy="400.38" r="1.12" fill="#e67156" opacity="0.64"/><circle cx="736.50" cy="421.73" r="1.64" fill="#e7c36a" opacity="0.80"/><circle cx="933.42" cy="339.00" r="1.27" fill="#e67156" opacity="0.45"/><circle cx="1011.32" cy="191.67" r="0.66" fill="#e67156" opacity="0.53"/><text x="48" y="56" fill="#b2a2a8" font-size="13" text-anchor="start" font-weight="400">PROJECT / OPEN SOURCE</text><text x="48" y="182" font-size="74.0" fill="url(#brand)" font-weight="700">ofdcli</text><text x="50" y="242.0" fill="#fdeef1" font-size="24" text-anchor="start" font-weight="400">Read OFD documents from a command</text><text x="50" y="275.6" fill="#fdeef1" font-size="24" text-anchor="start" font-weight="400">line.</text><path d="M656.0 309.0L762.6 193.5L864.0 235.5L975.8 120.0" fill="none" stroke="#e67156" stroke-width="1.5" marker-end="url(#arrow)"/><path d="M656.0 309.0L762.6 193.5L864.0 235.5L975.8 120.0" class="flow" fill="none" stroke="#f6acba" stroke-width="2"/><circle cx="656.0" cy="309.0" r="12" fill="#f6acba" opacity=".5" filter="url(#glow)"/><circle class="pulse" cx="656.0" cy="309.0" r="3" fill="#f6acba"/><circle cx="762.6" cy="193.5" r="12" fill="#f6acba" opacity=".5" filter="url(#glow)"/><circle class="pulse" cx="762.6" cy="193.5" r="3" fill="#f6acba"/><circle cx="864.0" cy="235.5" r="12" fill="#f6acba" opacity=".5" filter="url(#glow)"/><circle class="pulse" cx="864.0" cy="235.5" r="3" fill="#f6acba"/><circle cx="975.8" cy="120.0" r="12" fill="#f6acba" opacity=".5" filter="url(#glow)"/><circle class="pulse" cx="975.8" cy="120.0" r="3" fill="#f6acba"/></svg>
